<?xml version="1.0" encoding="UTF-8" standalone="no"?>
<!-- Created with Inkscape (http://www.inkscape.org/) -->

<svg
   width="113mm"
   height="99mm"
   viewBox="0 0 427.0864 374.17372"
   version="1.1"
   id="svg5"
   xml:space="preserve"
   inkscape:version="1.2 (56b05e47e7, 2022-06-09, custom)"
   sodipodi:docname="sfgram_logo.svg"
   inkscape:export-filename="../fe3536b4/sfgram_logo.png"
   inkscape:export-xdpi="481.98001"
   inkscape:export-ydpi="481.98001"
   xmlns:inkscape="http://www.inkscape.org/namespaces/inkscape"
   xmlns:sodipodi="http://sodipodi.sourceforge.net/DTD/sodipodi-0.dtd"
   xmlns="http://www.w3.org/2000/svg"
   xmlns:svg="http://www.w3.org/2000/svg"><sodipodi:namedview
     id="namedview7"
     pagecolor="#ffffff"
     bordercolor="#111111"
     borderopacity="1"
     inkscape:showpageshadow="0"
     inkscape:pageopacity="0"
     inkscape:pagecheckerboard="1"
     inkscape:deskcolor="#d1d1d1"
     inkscape:document-units="mm"
     showgrid="false"
     inkscape:zoom="2.1671418"
     inkscape:cx="199.57162"
     inkscape:cy="206.95461"
     inkscape:window-width="3782"
     inkscape:window-height="2096"
     inkscape:window-x="1440"
     inkscape:window-y="231"
     inkscape:window-maximized="1"
     inkscape:current-layer="layer1" /><defs
     id="defs2" /><g
     inkscape:label="Calque 1"
     inkscape:groupmode="layer"
     id="layer1"><path
       id="path10248"
       style="fill:#000000;stroke-width:0.736107"
       d="m 61.112696,232.74618 c -3.16884,0.003 -6.05516,2.94331 -4.70703,6.58398 0.51051,1.37865 0.24416,2.38618 -1.20898,4.58203 l -1.86328,2.81641 -2.01563,-0.76758 c -13.63033,-5.18229 -34.93961,2.54824 -38.34375,13.91016 -4.0581098,13.54484 3.70029,22.79649 25.45313,30.35156 19.0095,6.60227 20.90486,20.4958 2.88867,21.17773 -10.88083,0.41184 -15.27749,-3.26126 -15.93164,-13.3125 l -0.39258,-6.05468 h -7.36133 -7.36133 l -0.23242,5.52148 c -0.5909298,14.05253 8.65816,23.64004 24.75781,25.66406 39.312,4.94241 47.8029,-31.70544 10.39844,-44.88086 -16.30879,-5.74462 -20.31317,-9.86015 -16.18359,-16.63281 6.00976,-9.8564 22.51271,-5.62411 24.20508,6.20703 l 0.5039,3.51172 h 7.35157 7.35156 l -0.10547,-4.8457 c -0.13224,-6.0651 -2.03842,-10.08171 -7.03906,-14.83203 l -3.66602,-3.48243 1.59961,-2.58984 c 0.88053,-1.42473 2.13381,-2.5918 2.7832,-2.5918 3.83471,0 5.786,-5.62145 2.98633,-8.60156 -1.14058,-1.2141 -2.5292,-1.73568 -3.86719,-1.73437 z m 0.16602,2.80078 c 1.26968,-1.7e-4 2.299,1.02915 2.29883,2.29883 -9.1e-4,1.26891 -1.02991,2.29704 -2.29883,2.29687 -1.26892,1.7e-4 -2.29792,-1.02796 -2.29883,-2.29687 -1.7e-4,-1.26968 1.02915,-2.299 2.29883,-2.29883 z m 110.310554,8.88672 c -12.38194,-0.0373 -25.14119,6.08187 -30.1836,18.77929 -3.67072,9.24353 -4.48871,27.74203 -1.63281,36.91797 l 1.14649,3.68164 -2.38868,2.00391 c -1.6681,1.40038 -3.23499,2.00964 -5.19726,2.02344 -5.32748,0.0376 -7.92577,3.82677 -5.33594,7.77929 2.20282,3.36193 7.85459,1.94722 8.6211,-2.1582 0.14301,-0.76597 1.54302,-2.42331 3.11132,-3.68164 l 2.85157,-2.28711 0.83007,1.43164 c 3.2691,5.64813 9.91248,10.86447 16.53516,12.98242 12.03551,3.84909 30.28203,0.66492 38.73828,-6.75976 l 2.60352,-2.28516 v -3.97265 -3.97266 h 5.88867 5.88867 v 8.83398 8.83204 h 7.73047 7.72852 v -19.08204 -19.08203 l 1.84375,-2.19336 c 2.15309,-2.5588 7.72195,-4.20092 12.20508,-3.59961 l 2.88086,0.38672 v -7.29101 -7.29102 h -3.70313 c -4.76919,0 -7.77319,1.29749 -11.20312,4.83789 l -2.75977,2.84766 v -3.47461 -3.47461 h -7.36133 -7.36133 v 15.82617 15.82617 h -5.86133 -5.86328 l -0.21093,-7.17578 -0.20899,-7.17773 -14.90625,-0.19922 -14.90625,-0.19922 v 5.9043 5.90429 h 7.01953 7.01953 l -0.21093,7.17578 -0.21094,7.17774 -2.94336,1.45312 c -19.45892,9.60583 -35.43799,-16.90615 -25.52149,-42.3457 5.46437,-14.01814 25.12415,-14.47057 28.8418,-0.66406 l 0.7832,2.91015 h 7.4336 7.43359 l -0.45312,-3.30273 c -1.96514,-14.33719 -15.1111,-21.80472 -28.71094,-21.8457 z m -91.757824,0.85742 v 38.64648 38.64454 h 8.09571 8.09765 v -15.82618 -15.82617 h 15.089854 15.0918 v -6.25586 -6.25781 h -15.0918 -15.089854 v -10.30469 -10.30664 h 17.298834 17.29883 v -6.25586 -6.25781 h -25.39648 z m 184.126964,1.62695 c -0.63956,0.0123 -1.29355,0.15278 -1.93554,0.44531 -3.91456,1.78359 -4.18736,7.52844 -0.41993,8.8418 1.68528,0.58749 2.35187,1.43708 2.98828,3.80078 0.45076,1.674 0.99011,3.48553 1.19727,4.02539 0.24381,0.63535 -1.00364,1.61665 -3.53711,2.78125 -6.79569,3.12391 -11.64453,8.81709 -11.64453,13.67578 v 1.60743 h 7.28906 7.28906 l 0.75196,-2.15235 c 3.04501,-8.73506 15.98924,-5.56916 16.49805,4.03516 l 0.19335,3.63867 -8.46484,0.40625 c -25.03549,1.20184 -35.25647,23.45111 -15.33398,33.37891 6.97639,3.47645 18.09624,2.27898 22.25586,-2.39649 1.91927,-2.15728 2.4051,-1.99399 2.96679,1 l 0.48242,2.57618 h 7.7754 7.77734 l -0.54492,-2.02344 c -1.49385,-5.5515 -1.76142,-9.16237 -1.79102,-24.16016 -0.0499,-25.27291 -3.70957,-30.77788 -21.12109,-31.77539 l -6.73438,-0.38672 -1.14453,-4.02734 -1.14648,-4.0293 1.15234,-1.75781 c 2.16018,-3.29685 -0.99914,-7.47781 -4.67187,-7.50391 -0.0425,-3e-4 -0.0843,-8.2e-4 -0.12696,0 z m 0.0605,2.71875 c 1.26968,-1.7e-4 2.299,1.02915 2.29883,2.29883 -9.1e-4,1.26891 -1.02991,2.29704 -2.29883,2.29687 -1.26892,1.7e-4 -2.29792,-1.02796 -2.29883,-2.29687 -1.7e-4,-1.26968 1.02915,-2.299 2.29883,-2.29883 z m 76.88672,14.66016 c -0.0814,3e-5 -0.16263,9.7e-4 -0.24414,0.002 -4.3226,0.0521 -8.75443,1.43933 -12.38281,4.20899 -4.13874,3.15911 -4.06055,3.16833 -4.06055,-0.39649 v -2.94531 h -7.36133 -7.36133 v 7.32031 7.31836 l 7.28711,4.08984 c 8.72076,4.89464 8.17188,4.83137 8.17188,0.94141 0,-5.28376 3.67653,-8.62891 9.48437,-8.62891 8.49634,0 8.91797,1.25146 8.91797,26.47657 v 19.89844 h 7.73047 7.72852 V 302.1349 c 0,-24.32911 0.58542,-25.92774 9.49804,-25.92774 8.22895,0 8.49075,0.76457 8.77149,25.58008 l 0.23437,20.79493 h 7.31055 7.31055 v -9.56836 -9.57032 h 4.69336 c 3.27486,0 4.97213,0.33326 5.61132,1.10352 1.94458,2.34307 7.36133,0.32379 7.36133,-2.74414 0,-3.8247 -5.11649,-5.66172 -7.72851,-2.77539 -1.03767,1.14661 -2.2685,1.47265 -5.56055,1.47265 h -4.22656 l -0.25977,-11.96289 c 0,0 0.18837,-8.95081 -0.71679,-12.01953 -0.90523,-3.06872 -1.83594,-3.99023 -1.83594,-3.99023 -1.8198,-3.21288 -3.11037,-4.47989 -6.25586,-6.13477 0,0 -2.61525,-1.15875 -4.30274,-1.53516 -1.68743,-0.37639 -5.55078,-0.28125 -5.55078,-0.28125 -6.67419,0.3031 -10.28159,1.71916 -14.09961,5.53711 l -2.46289,2.46485 -2.38672,-2.71875 c -3.23421,-3.68364 -8.18442,-5.56464 -13.31445,-5.5625 z m -31.41016,20.64453 v 2.16992 2.16992 l 7.51172,4.50391 c 4.13125,2.47772 7.61069,4.50586 7.73047,4.50586 0.11977,0 0.2168,-1.30801 0.2168,-2.90625 v -2.90625 l -6.07227,-3.27344 c -3.34009,-1.80065 -6.81954,-3.4974 -7.73047,-3.76953 z m -221.400394,9.21094 c 1.62344,-7e-5 2.93952,1.31601 2.93945,2.93945 7e-5,1.62344 -1.31601,2.93952 -2.93945,2.93945 -1.62345,8e-5 -2.93953,-1.316 -2.93946,-2.93945 -7e-5,-1.62345 1.31601,-2.93953 2.93946,-2.93945 z m 222.201174,0.45703 c -0.54855,0 -0.80078,4.40279 -0.80078,13.98633 v 13.98633 h 7.73047 7.72852 v -9.88672 -9.88672 l -2.02344,-1.39649 c -3.16423,-2.18182 -11.74645,-6.80273 -12.63477,-6.80273 z m -33.29492,1.5664 c 0.51371,1.8e-4 1.04037,0.0164 1.58008,0.0469 l 4.04687,0.22852 0.21485,4.83007 c 0.24673,5.55626 -1.19984,8.19762 -5.4668,9.98047 -6.859,2.8659 -12.71276,0.0653 -12.75976,-6.10547 -0.0428,-5.60979 4.67919,-8.98307 12.38476,-8.98047 z m 128.34961,3.79297 c 0.99632,1.7e-4 1.80364,0.80838 1.80274,1.80469 -1.7e-4,0.99555 -0.80719,1.80257 -1.80274,1.80274 -0.99555,-1.8e-4 -1.80256,-0.80719 -1.80273,-1.80274 -9e-4,-0.99631 0.80642,-1.80451 1.80273,-1.80469 z m -198.22005,0.32897 c 1.13406,0 2.28777,0.12715 3.1481,0.20464 1.72065,0.15498 0.32889,0.94922 -3.11241,0.94922 -3.4413,0 -4.7889,-0.81079 -3.06831,-0.96577 0.86033,-0.0775 1.89856,-0.18809 3.03262,-0.18809 z m -119.035814,3.22572 c 1.62344,-7e-5 2.93952,1.31601 2.93945,2.93945 8e-5,1.62345 -1.316,2.93953 -2.93945,2.93946 -1.62345,8e-5 -2.93954,-1.31601 -2.93946,-2.93946 -7e-5,-1.62345 1.31601,-2.93953 2.93946,-2.93945 z m 43.748044,6.91211 c 1.26968,-1.7e-4 2.299,1.02915 2.29883,2.29883 1.7e-4,1.26968 -1.02915,2.299 -2.29883,2.29883 -1.26968,1.7e-4 -2.29899,-1.02915 -2.29882,-2.29883 -1.7e-4,-1.26968 1.02914,-2.299 2.29882,-2.29883 z m -43.748044,2.24414 c 1.62344,-7e-5 2.93952,1.31601 2.93945,2.93945 8e-5,1.62345 -1.316,2.93953 -2.93945,2.93946 -1.62345,8e-5 -2.93954,-1.31601 -2.93946,-2.93946 -7e-5,-1.62345 1.31601,-2.93953 2.93946,-2.93945 z"
       sodipodi:nodetypes="sscccsssccccccsscccccsccssscccccsscccssscccscccccccccccccccccsccccccccccccccccccccsscccccscccccccccccccccccccccsssssssccccccssscccccscccccsscccccsssscccccsssscccssccccccsssssccsccsccccsccccsscscccccccssccccccsscccssscccccsssssccccccccccccccc" /><path
       id="path2743"
       style="fill:#000000;fill-opacity:1;stroke:none;stroke-width:1.00157;stroke-linecap:butt;stroke-linejoin:miter;stroke-dasharray:none;stroke-opacity:1"
       d="M 239.99747,99.851635 C 211.31596,100.01327 163.69465,111.9786 124.93497,125.10945 69.810106,143.78453 -5.2490438,180.8817 9.9935562,207.4786 25.236206,234.07547 129.68493,194.48096 146.93888,187.99617 c -14.97857,4.33834 -29.56944,6.01358 -31.4375,0.97657 -1.86893,-5.03716 9.39249,-13.41281 25.15234,-18.70703 15.75882,-5.29378 30.04796,-5.50186 31.91602,-0.46485 1.46287,4.053 -5.87717,10.03304 -17.58985,15.24414 51.58538,-21.07179 119.37907,-62.76758 109.12501,-78.28516 -3.26498,-4.94087 -11.99744,-6.976445 -24.10743,-6.908205 z m -4.08398,4.496095 c -22.77808,3.44693 -71.92248,15.26293 -107.48633,27.31446 -35.563894,12.05153 -74.530304,28.17038 -106.599614,52.73047 31.61681,-29.57223 68.61067,-44.32027 105.162114,-56.13282 36.55144,-11.81251 83.90743,-23.80083 108.92383,-23.91211 z m -18.22852,31.43165 c 0.43841,0.007 0.84453,0.0577 1.20703,0.15625 2.90024,0.78818 -2.65424,5.62328 -5.79882,7.77343 -3.14462,2.15018 -8.98337,4.90397 -11.91797,3.93555 -2.93463,-0.96842 2.29179,-5.94909 5.73633,-8.05469 3.01395,-1.84238 7.70462,-3.86247 10.77343,-3.81054 z m -86.10547,9.97265 c 1.95821,0.0652 4.12779,4.44818 4.55469,7.11524 0.45536,2.84484 -0.66258,4.65628 -1.94922,4.98242 -1.28664,0.32614 -3.08543,-0.47415 -4.10156,-3.01367 -1.01613,-2.53954 -0.94194,-8.4641 1.10742,-9.03711 0.12809,-0.0358 0.25813,-0.0512 0.38867,-0.0469 z m -58.095704,50.89258 c 4.34511,-0.14599 10.415,0.60205 9.89453,2.0918 -0.52047,1.48975 -5.08402,3.00055 -9.00977,3.11719 -3.92574,0.11664 -11.26891,0.20266 -10.57226,-1.63477 0.69665,-1.83743 5.34238,-3.42823 9.6875,-3.57422 z" /><path
       style="fill:#000000;fill-opacity:1;stroke:#000000;stroke-width:0;stroke-linecap:butt;stroke-linejoin:miter;stroke-dasharray:none;stroke-opacity:1"
       d="m 136.63642,173.51851 4.33714,12.9851 4.76761,-1.94226 -4.39052,-12.79782 z"
       id="path3701" /><path
       style="fill:#000000;fill-opacity:1;stroke:#000000;stroke-width:0;stroke-linecap:butt;stroke-linejoin:miter;stroke-dasharray:none;stroke-opacity:1"
       d="m 157.07101,168.47509 c 0.49057,3.12541 2.99148,9.28188 3.94722,10.5713 0,0 11.7217,-3.99723 9.16392,-8.48545 -2.55778,-4.48822 -13.11114,-2.08585 -13.11114,-2.08585 z"
       id="path3703"
       sodipodi:nodetypes="cczc" /><path
       id="path3757"
       style="fill:#000000;fill-opacity:1;stroke:none;stroke-width:0;stroke-dasharray:none"
       d="m 13.763086,89.509835 a 4.9740109,4.9740109 0 0 0 -4.9726498,4.97266 4.9740109,4.9740109 0 0 0 4.9726498,4.97461 4.9740109,4.9740109 0 0 0 4.97461,-4.97461 4.9740109,4.9740109 0 0 0 -4.97461,-4.97266 z m 0.71875,1.25782 a 1.6853935,0.91012152 32.465161 0 1 1.31836,0.41797 1.6853935,0.91012152 32.465161 0 1 0.9336,1.67187 1.6853935,0.91012152 32.465161 0 1 -1.91016,-0.13672 1.6853935,0.91012152 32.465161 0 1 -0.93359,-1.67187 1.6853935,0.91012152 32.465161 0 1 0.59179,-0.28125 z" /><path
       id="circle3967"
       style="fill:#000000;fill-opacity:1;stroke:none;stroke-width:0;stroke-dasharray:none"
       d="m 82.677156,51.019605 a 6.6204352,6.6204352 0 0 0 -6.6211,6.62109 6.6204352,6.6204352 0 0 0 6.6211,6.6211 6.6204352,6.6204352 0 0 0 6.61914,-6.6211 6.6204352,6.6204352 0 0 0 -6.61914,-6.62109 z m 0.93164,1.92773 a 2.4085288,1.3006185 32.465161 0 1 1.85156,0.59766 2.4085288,1.3006185 32.465161 0 1 1.33399,2.39062 2.4085288,1.3006185 32.465161 0 1 -2.73047,-0.19726 2.4085288,1.3006185 32.465161 0 1 -1.33399,-2.38867 2.4085288,1.3006185 32.465161 0 1 0.87891,-0.40235 z" /><path
       id="circle3969"
       style="fill:#000000;fill-opacity:1;stroke:none;stroke-width:0;stroke-dasharray:none"
       d="m 51.772856,99.191475 a 4.2022185,4.2022185 0 0 0 -4.20117,4.203135 4.2022185,4.2022185 0 0 0 4.20117,4.20117 4.2022185,4.2022185 0 0 0 4.20313,-4.20117 4.2022185,4.2022185 0 0 0 -4.20313,-4.203135 z m 0.48828,1.355475 a 1.2599662,0.68038848 32.465161 0 1 0.98633,0.31055 1.2599662,0.68038848 32.465161 0 1 0.69727,1.25195 1.2599662,0.68038848 32.465161 0 1 -1.42774,-0.10351 1.2599662,0.68038848 32.465161 0 1 -0.69922,-1.25 1.2599662,0.68038848 32.465161 0 1 0.44336,-0.20899 z" /><path
       id="circle3971"
       style="fill:#000000;fill-opacity:1;stroke:none;stroke-width:0;stroke-dasharray:none"
       d="m 22.030666,142.33211 a 5.3472958,5.3472958 0 0 0 -5.34765,5.34766 5.3472958,5.3472958 0 0 0 5.34765,5.3457 5.3472958,5.3472958 0 0 0 5.34766,-5.3457 5.3472958,5.3472958 0 0 0 -5.34766,-5.34766 z m 0.64844,1.4082 a 1.9610844,1.0589961 32.465161 0 1 1.53516,0.48633 1.9610844,1.0589961 32.465161 0 1 1.08593,1.94531 1.9610844,1.0589961 32.465161 0 1 -2.22265,-0.1582 1.9610844,1.0589961 32.465161 0 1 -1.08789,-1.94726 1.9610844,1.0589961 32.465161 0 1 0.68945,-0.32618 z" /><path
       id="circle3973"
       style="fill:#000000;fill-opacity:1;stroke:none;stroke-width:0;stroke-dasharray:none"
       d="m 123.66544,73.134835 a 4.360054,4.360054 0 0 0 -4.35938,4.36133 4.360054,4.360054 0 0 0 4.35938,4.35938 4.360054,4.360054 0 0 0 4.36133,-4.35938 4.360054,4.360054 0 0 0 -4.36133,-4.36133 z m 0.4043,1.24414 a 1.5043818,0.81237424 32.465161 0 1 1.17773,0.3711 1.5043818,0.81237424 32.465161 0 1 0.83399,1.49414 1.5043818,0.81237424 32.465161 0 1 -1.70508,-0.12305 1.5043818,0.81237424 32.465161 0 1 -0.83399,-1.49219 1.5043818,0.81237424 32.465161 0 1 0.52735,-0.25 z" /><path
       id="circle3975"
       style="fill:#000000;fill-opacity:1;stroke:none;stroke-width:0;stroke-dasharray:none"
       d="m 150.16153,44.574295 a 4.696454,4.696454 0 0 0 -4.69726,4.69726 4.696454,4.696454 0 0 0 4.69726,4.69531 4.696454,4.696454 0 0 0 4.69727,-4.69531 4.696454,4.696454 0 0 0 -4.69727,-4.69726 z m 0.53516,1.48046 a 1.5043818,0.81237424 32.465161 0 1 1.17774,0.3711 1.5043818,0.81237424 32.465161 0 1 0.83203,1.49414 1.5043818,0.81237424 32.465161 0 1 -1.70508,-0.12305 1.5043818,0.81237424 32.465161 0 1 -0.83203,-1.49219 1.5043818,0.81237424 32.465161 0 1 0.52734,-0.25 z" /><path
       id="path4733"
       style="fill:#000000;fill-opacity:1;stroke:#000000;stroke-width:0;stroke-linecap:butt;stroke-linejoin:miter;stroke-dasharray:none;stroke-opacity:1"
       d="m 125.33732,99.275465 c -20.45939,1.845615 -57.196414,20.480645 -59.419404,47.364285 37.540704,-18.21247 61.501704,-26.75834 114.214324,-39.751 -19.60569,-5.63743 -34.33553,-9.458895 -54.79492,-7.613285 z m -23.98047,10.083985 c 0,0 -6.693334,10.92063 -7.625004,20.36329 -0.0595,0.60323 -5.87891,2.17968 -5.87891,2.17968 2.02732,-11.45313 10.39232,-20.94073 13.503914,-22.54297 z"
       sodipodi:nodetypes="zcczcscc" /><path
       id="path6321"
       style="fill:#000000;fill-opacity:1;stroke-width:0"
       d="m 262.13224,9.8360055 c -40.55175,0.10123 -76.03419,27.2931295 -86.67578,66.4238295 -22.49346,4.21385 -43.78964,10.68021 -61.53516,20.29688 73.29048,-20.45673 160.54893,-13.95465 200.00586,-8.79883 6.23035,0.81412 11.87583,1.73227 17.24024,2.68945 0.64515,4.10665 0.97164,8.25706 0.97656,12.414075 -3.1e-4,44.51597 -36.08755,80.60321 -80.60352,80.60351 -20.17281,-0.0717 -39.58545,-7.70502 -54.4043,-21.39257 16.95765,17.76643 40.43584,27.83627 64.9961,27.87695 40.00745,-0.005 75.21545,-26.40223 86.4336,-64.80469 28.33869,0.12268 67.48399,-3.80543 67.34179,-14.16211 -0.11712,-8.53052 -28.73559,-25.083515 -66.8125,-33.908205 -4.30227,-16.0395 -12.58008,-29.25907 -24.62824,-40.68784 8.06289,-3.78564 18.31899,-10.38385 18.31899,-10.38385 3.60774,2.88423 13.46336,-8.2146 11.61243,-10.12255 -2.56114,-2.64004 -17.82917,3.14904 -14.75742,6.54658 0,0 -9.71516,6.24611 -17.17164,11.56171 C 305.9702,18.689925 284.63197,9.9870855 262.13224,9.8360055 Z m -10.5918,12.4218795 c 32.87438,0.10686 62.38972,20.16761 74.5879,50.69531 -2.47582,-0.31622 -4.95469,-0.62921 -7.46875,-0.86328 -36.09347,-3.36046 -92.57231,-5.28827 -143.03321,4.13672 11.2978,-32.26915 41.72439,-53.89999 75.91406,-53.96875 z m 100.29493,72.67969 c 15.59505,4.2067 24.1707,8.827495 24.35156,12.576175 0.25234,5.23053 -16.92699,5.04712 -24.89648,4.94141 0.59228,-4.1614 0.89249,-8.35916 0.89843,-12.562505 -0.0722,-1.65463 -0.19013,-3.30695 -0.35351,-4.95508 z"
       sodipodi:nodetypes="cccsccccccscccscccccscccsccc" /><path
       style="fill:#000000;fill-opacity:1;stroke:none;stroke-width:1px;stroke-linecap:butt;stroke-linejoin:miter;stroke-opacity:1"
       d="m 236.09908,61.958075 c 7.46672,-6.67513 28.88269,-19.01711 28.88269,-19.01711 -3.46037,-3.65004 10.92512,-10.42972 14.42062,-6.13993 3.4955,4.28979 -7.89986,12.14361 -11.93531,9.07099 0,0 -23.07226,13.14027 -31.368,16.08605 z"
       id="path9773"
       sodipodi:nodetypes="cczcc" /><path
       style="fill:#000000;fill-opacity:1;stroke:none;stroke-width:1.11533px;stroke-linecap:butt;stroke-linejoin:miter;stroke-opacity:1"
       d="m 253.96535,143.40806 c 8.88805,-6.76638 33.78339,-18.60892 33.78339,-18.60892 -3.52702,-4.36217 13.063,-10.63736 16.57293,-5.56079 3.50994,5.07658 -9.84974,12.80859 -14.0669,9.03795 0,0 -26.80701,12.58473 -36.28942,15.13176 z"
       id="path9775"
       sodipodi:nodetypes="cczcc" /><path
       style="fill:#000000;fill-opacity:1;stroke:none;stroke-width:1px;stroke-linecap:butt;stroke-linejoin:miter;stroke-opacity:1"
       d="m 205.047,56.791105 11.48764,6.55468 12.35897,-15.82017 -12.36923,-6.01211 z"
       id="path10111" /><path
       style="fill:#000000;fill-opacity:1;stroke:none;stroke-width:0.813535px;stroke-linecap:butt;stroke-linejoin:miter;stroke-opacity:1"
       d="m 229.96243,47.350525 -6.92143,8.83722 1.38687,2.15188 7.18445,-3.88168 7.18446,-3.88168 -3.62999,-4.25662 -3.62999,-4.25661 -5.32771,3.32471 z"
       id="path10113"
       sodipodi:nodetypes="ccccccccc" /><text
       xml:space="preserve"
       style="font-style:normal;font-weight:normal;font-size:24px;line-height:1.25;font-family:sans-serif;fill:#000000;fill-opacity:1;stroke:none"
       x="94.455772"
       y="352.75879"
       id="text10613"><tspan
         sodipodi:role="line"
         id="tspan10611"
         x="94.455772"
         y="352.75879"
         style="font-style:normal;font-variant:normal;font-weight:600;font-stretch:normal;font-size:24px;font-family:FreeSans;-inkscape-font-specification:'FreeSans Semi-Bold'">A Science-Fiction Dataset</tspan></text></g></svg>
